<?xml version="1.0" encoding="UTF-8" standalone="no"?>
<!-- Created with Inkscape (http://www.inkscape.org/) -->

<svg
   xmlns:dc="http://purl.org/dc/elements/1.1/"
   xmlns:cc="http://creativecommons.org/ns#"
   xmlns:rdf="http://www.w3.org/1999/02/22-rdf-syntax-ns#"
   xmlns:svg="http://www.w3.org/2000/svg"
   xmlns="http://www.w3.org/2000/svg"
   xmlns:sodipodi="http://sodipodi.sourceforge.net/DTD/sodipodi-0.dtd"
   xmlns:inkscape="http://www.inkscape.org/namespaces/inkscape"
   width="744.09448819"
   height="1052.3622047"
   id="svg2"
   version="1.1"
   inkscape:version="0.48.3.1 r9886"
   sodipodi:docname="java.svg">
  <defs
     id="defs4" />
  <sodipodi:namedview
     id="base"
     pagecolor="#ffffff"
     bordercolor="#666666"
     borderopacity="1.0"
     inkscape:pageopacity="0.0"
     inkscape:pageshadow="2"
     inkscape:zoom="1.5132432"
     inkscape:cx="415.61685"
     inkscape:cy="225.34083"
     inkscape:document-units="px"
     inkscape:current-layer="layer1"
     showgrid="false"
     inkscape:window-width="1600"
     inkscape:window-height="876"
     inkscape:window-x="0"
     inkscape:window-y="24"
     inkscape:window-maximized="1"
     inkscape:snap-grids="false" />
  <metadata
     id="metadata7">
    <rdf:RDF>
      <cc:Work
         rdf:about="">
        <dc:format>image/svg+xml</dc:format>
        <dc:type
           rdf:resource="http://purl.org/dc/dcmitype/StillImage" />
        <dc:title></dc:title>
      </cc:Work>
    </rdf:RDF>
  </metadata>
  <g
     inkscape:label="Livello 1"
     inkscape:groupmode="layer"
     id="layer1">
    <text
       xml:space="preserve"
       style="font-size:30.7786026px;font-style:normal;font-weight:normal;line-height:125%;letter-spacing:0px;word-spacing:0px;fill:#000000;fill-opacity:1;stroke:none;font-family:Sans"
       x="139.52271"
       y="58.213226"
       id="text2985"
       sodipodi:linespacing="125%"><tspan
         sodipodi:role="line"
         id="tspan2987"
         x="139.52271"
         y="58.213226">Java Graphic Server Application II</tspan></text>
    <rect
       style="fill:#ffd223;fill-opacity:1"
       id="rect2989"
       width="193.17212"
       height="180.09276"
       x="272.75153"
       y="85.362183" />
    <text
       xml:space="preserve"
       style="font-size:19.97688103px;font-style:normal;font-weight:normal;line-height:125%;letter-spacing:0px;word-spacing:0px;fill:#090909;fill-opacity:1;stroke:none;font-family:Sans"
       x="278.81018"
       y="108.01335"
       id="text2991"
       sodipodi:linespacing="125%"><tspan
         sodipodi:role="line"
         id="tspan2993"
         x="278.81018"
         y="108.01335">RunGraphicServer</tspan></text>
    <path
       style="fill:none;stroke:#000000;stroke-width:0.70427334px;stroke-linecap:butt;stroke-linejoin:miter;stroke-opacity:1"
       d="m 272.85214,114.94166 99.30254,0 93.66835,0.70427"
       id="path3851"
       inkscape:connector-curvature="0" />
    <rect
       style="fill:#ffd223;fill-opacity:1"
       id="rect2989-3"
       width="193.17212"
       height="180.09276"
       x="271.20203"
       y="325.45859" />
    <text
       xml:space="preserve"
       style="font-size:40px;font-style:normal;font-weight:normal;line-height:125%;letter-spacing:0px;word-spacing:0px;fill:#000000;fill-opacity:1;stroke:none;font-family:Sans"
       x="296.98486"
       y="413.13766"
       id="text3962"
       sodipodi:linespacing="125%"><tspan
         sodipodi:role="line"
         id="tspan3964" /></text>
    <text
       xml:space="preserve"
       style="font-size:40px;font-style:normal;font-weight:normal;line-height:125%;letter-spacing:0px;word-spacing:0px;fill:#000000;fill-opacity:1;stroke:none;font-family:Sans"
       x="532.45142"
       y="412.43054"
       id="text3966"
       sodipodi:linespacing="125%"><tspan
         sodipodi:role="line"
         id="tspan3968" /></text>
    <text
       xml:space="preserve"
       style="font-size:21.39627647px;font-style:normal;font-weight:normal;line-height:125%;letter-spacing:0px;word-spacing:0px;fill:#000000;fill-opacity:1;stroke:none;font-family:Sans"
       x="283.81601"
       y="351.12152"
       id="text3016"
       sodipodi:linespacing="125%"><tspan
         sodipodi:role="line"
         x="283.81601"
         y="351.12152"
         id="tspan3020">GraphicServer</tspan></text>
    <path
       style="fill:none;stroke:#000000;stroke-width:1px;stroke-linecap:butt;stroke-linejoin:miter;stroke-opacity:1"
       d="m 271.95573,356.55544 192.37836,0.48337"
       id="path3030"
       inkscape:connector-curvature="0" />
    <path
       style="fill:none;stroke:#000000;stroke-width:0.70427334px;stroke-linecap:butt;stroke-linejoin:miter;stroke-opacity:1"
       d="m 465.13248,100.71561 88.73845,-0.70427 -7.04274,-8.45128"
       id="path3877-4"
       inkscape:connector-curvature="0" />
    <text
       xml:space="preserve"
       style="font-size:16.21848297px;font-style:normal;font-weight:normal;line-height:125%;letter-spacing:0px;word-spacing:0px;fill:#000000;fill-opacity:1;stroke:none;font-family:Sans"
       x="556.54962"
       y="94.590256"
       id="text3067"
       sodipodi:linespacing="125%"><tspan
         sodipodi:role="line"
         id="tspan3069"
         x="556.54962"
         y="94.590256">Implementa</tspan><tspan
         sodipodi:role="line"
         x="556.54962"
         y="114.86336"
         id="tspan3071">Window Listener</tspan></text>
    <path
       style="fill:none;stroke:#000000;stroke-width:1px;stroke-linecap:butt;stroke-linejoin:miter;stroke-opacity:1"
       d="m 271.60208,107.37198 -99.12485,0.66083 14.53831,-13.216643"
       id="path3073"
       inkscape:connector-curvature="0" />
    <text
       xml:space="preserve"
       style="font-size:18.36012077px;font-style:normal;font-weight:normal;line-height:125%;letter-spacing:0px;word-spacing:0px;fill:#000000;fill-opacity:1;stroke:none;font-family:Sans"
       x="97.046936"
       y="98.199898"
       id="text3075"
       sodipodi:linespacing="125%"><tspan
         sodipodi:role="line"
         id="tspan3077"
         x="97.046936"
         y="98.199898">Figlia di</tspan><tspan
         sodipodi:role="line"
         x="97.046936"
         y="121.15005"
         id="tspan3079">Frame</tspan></text>
    <path
       style="fill:none;stroke:#000000;stroke-width:1px;stroke-linecap:butt;stroke-linejoin:miter;stroke-opacity:1"
       d="m 272.92374,159.57773 192.30221,0.66084"
       id="path3158"
       inkscape:connector-curvature="0" />
    <path
       style="fill:none;stroke:#000000;stroke-width:1px;stroke-linecap:butt;stroke-linejoin:miter;stroke-opacity:1"
       d="m 272.92374,213.76598 191.64137,0.66083"
       id="path3160"
       inkscape:connector-curvature="0" />
    <path
       style="fill:#000000;fill-opacity:1"
       id="path3208"
       d="m 463.95394,105.09074 c 0.45934,0.0902 0.9318,0.12911 1.378,0.27063 2.4912,0.79014 4.82435,2.24772 7.03317,3.59677 2.75631,1.68343 3.34702,2.11926 6.0799,3.94429 0.96948,0.69868 1.97987,1.34383 2.90843,2.09604 0.96613,0.78265 1.84986,1.66192 2.76695,2.50149 1.5319,1.40239 4.1585,3.82831 5.60505,5.31984 2.15864,2.22577 3.60864,3.97983 5.62879,6.32614 0.942,1.1089 1.87238,2.22776 2.82599,3.32668 0.9883,1.13889 2.03081,2.23072 2.99941,3.38641 4.31112,5.1438 8.06906,10.69068 11.72026,16.31011 4.50219,6.69358 9.04293,13.55601 15.02547,19.05778 1.02053,0.93851 2.14901,1.75238 3.22352,2.62857 3.87708,2.96108 8.33577,4.90318 12.85338,6.64027 0,0 -2.69099,1.80454 -2.69099,1.80454 l 0,0 c -4.48501,-1.81828 -8.91185,-3.8301 -12.76813,-6.81264 -1.07588,-0.88899 -2.20515,-1.71705 -3.22764,-2.66697 -5.96819,-5.54458 -10.51206,-12.41386 -15.0178,-19.13043 -3.65915,-5.60087 -7.41577,-11.12597 -11.73255,-16.25046 -0.97317,-1.15526 -2.01824,-2.24812 -3.01032,-3.38717 -0.95554,-1.09708 -1.88815,-2.21392 -2.83222,-3.32089 -2.23976,-2.60117 -3.22857,-3.83128 -5.63103,-6.29269 -1.55415,-1.59229 -3.96066,-3.80951 -5.60574,-5.30553 -0.91244,-0.82978 -1.79584,-1.69453 -2.75556,-2.46914 -0.92614,-0.74752 -1.92948,-1.39399 -2.89422,-2.09098 -2.63575,-1.74401 -3.42709,-2.31096 -6.09629,-3.9123 -2.19897,-1.31922 -4.54853,-2.75849 -7.05075,-3.44755 -0.4472,-0.12315 -0.9177,-0.13578 -1.37655,-0.20366 0,0 2.64147,-1.91915 2.64147,-1.91915 z"
       inkscape:connector-curvature="0" />
    <path
       style="fill:#000000;fill-opacity:1"
       id="path3210"
       d="m 543.99791,168.79966 c -0.0159,2.1002 -0.01,4.20048 -0.007,6.30072 -0.002,0.89402 0.002,1.78803 0.004,2.68205 0,0 -2.90475,1.48004 -2.90475,1.48004 l 0,0 c 0.002,-0.89553 0.007,-1.79106 0.004,-2.68661 0.003,-2.09796 0.009,-4.19597 -0.007,-6.2939 0,0 2.90917,-1.4823 2.90917,-1.4823 z"
       inkscape:connector-curvature="0" />
    <text
       xml:space="preserve"
       style="font-size:20.02003098px;font-style:normal;font-weight:normal;line-height:125%;letter-spacing:0px;word-spacing:0px;fill:#000000;fill-opacity:1;stroke:none;font-family:Sans"
       x="543.84344"
       y="187.35175"
       id="text3212"
       sodipodi:linespacing="125%"><tspan
         sodipodi:role="line"
         id="tspan3214"
         x="543.84344"
         y="187.35175">Ha un suo main</tspan></text>
    <text
       xml:space="preserve"
       style="font-size:16.3386116px;font-style:normal;font-weight:normal;line-height:125%;letter-spacing:0px;word-spacing:0px;fill:#000000;fill-opacity:1;stroke:none;font-family:Sans"
       x="295.57687"
       y="131.68813"
       id="text3216"
       sodipodi:linespacing="125%"><tspan
         sodipodi:role="line"
         id="tspan3218"
         x="295.57687"
         y="131.68813">Attributo</tspan><tspan
         sodipodi:role="line"
         x="295.57687"
         y="152.11139"
         id="tspan3220">GraphicServer _s</tspan></text>
    <text
       xml:space="preserve"
       style="font-size:11.83250618px;font-style:normal;font-weight:normal;line-height:125%;letter-spacing:0px;word-spacing:0px;fill:#000000;fill-opacity:1;stroke:none;font-family:Sans"
       x="323.5596"
       y="159.2699"
       id="text3222"
       sodipodi:linespacing="125%"
       transform="scale(0.87636835,1.1410727)"><tspan
         sodipodi:role="line"
         id="tspan3224"
         x="323.5596"
         y="159.2699">Il costruttore di RunGraphicServer</tspan><tspan
         sodipodi:role="line"
         x="323.5596"
         y="174.06053"
         id="tspan3226">associa a _s una porta</tspan></text>
    <text
       xml:space="preserve"
       style="font-size:26.71524429px;font-style:normal;font-weight:normal;line-height:125%;letter-spacing:0px;word-spacing:0px;fill:#000000;fill-opacity:1;stroke:none;font-family:Sans"
       x="313.90427"
       y="245.31485"
       id="text3228"
       sodipodi:linespacing="125%"><tspan
         sodipodi:role="line"
         id="tspan3230"
         x="313.90427"
         y="245.31485">_s.run</tspan></text>
    <path
       style="fill:#000000;fill-opacity:1"
       id="path3232"
       d="m 286.75156,144.67733 c -7.62587,-0.002 -15.24889,-0.12149 -22.87303,-0.27645 -12.5675,-0.26264 -25.13735,-0.36903 -37.70722,-0.4269 -6.76773,-0.148 -13.58001,-0.091 -20.15984,1.70307 -2.60559,0.71043 -4.27959,1.50216 -6.7249,2.53136 -0.8152,0.47688 -1.66091,0.90507 -2.4456,1.43064 -0.21027,0.14084 0.87529,-0.46018 0.71025,-0.26832 -0.44986,0.52295 -1.09331,0.84385 -1.60413,1.30744 -1.42283,1.2913 -2.41665,2.72357 -3.39872,4.35431 -1.84657,2.94272 -3.03854,6.18106 -3.93734,9.51849 -1.0444,2.96858 -1.23322,6.07271 -1.38297,9.18702 -0.12192,3.33209 -0.12087,6.66703 -0.12044,10.00085 -0.0239,5.6696 -0.0249,11.33922 -0.0233,17.00885 0.005,5.45984 0.0228,10.91964 0.0189,16.37948 -0.0152,5.58951 -0.005,11.17903 -0.002,16.76854 0.0469,3.32258 -0.13285,6.66722 0.26779,9.9766 0.21356,1.76402 0.4741,2.65942 0.87883,4.37565 0.6802,2.58787 1.8614,5.00738 2.41415,7.63126 0.39068,1.85448 0.42728,2.71157 0.6313,4.64201 0.21682,4.66473 0.456,9.33484 1.33674,13.9327 0.46734,2.43969 1.04732,4.37591 1.70179,6.76221 1.69648,6.16765 5.45337,11.201 9.78887,15.76372 3.95816,3.71874 8.59728,6.60022 13.11099,9.58485 1.78223,1.26027 3.5002,2.61419 5.2741,3.88453 0.4973,0.35613 1.03342,0.65654 1.52535,1.02005 0.96961,0.7165 1.87117,1.52079 2.81,2.27717 2.51588,1.86695 4.90391,3.89474 7.50453,5.64354 3.0478,1.74826 5.9721,3.71206 8.91519,5.63284 2.29685,1.4111 4.89376,2.17182 7.30137,3.34624 0.95201,0.83651 1.92621,1.66088 2.78783,2.59234 1.05782,0.86884 1.80655,2.03492 2.85357,2.90627 1.41753,0.79995 2.54786,1.98786 3.83149,2.97371 1.40311,0.73355 2.30517,2.0321 3.42405,3.09302 0.45857,0.53201 1.00955,0.96709 1.57087,1.38351 0,0 -2.77545,1.75276 -2.77545,1.75276 l 0,0 c -0.55923,-0.4361 -1.10786,-0.88934 -1.57729,-1.42418 -1.09558,-1.06934 -2.01561,-2.32524 -3.39785,-3.0674 -1.28358,-0.99449 -2.43127,-2.16461 -3.8442,-2.98384 -1.03859,-0.899 -1.82453,-2.0457 -2.87973,-2.93459 -0.84261,-0.89453 -1.77343,-1.71083 -2.71606,-2.49759 -2.40108,-1.19141 -4.99284,-1.97873 -7.28073,-3.40663 -2.94278,-1.92624 -5.86934,-3.89056 -8.92582,-5.63161 -2.6011,-1.76024 -4.99478,-3.79084 -7.50643,-5.67458 -3.10642,-2.50357 -6.34531,-4.81742 -9.56475,-7.17586 -4.50967,-3.02589 -9.17996,-5.89988 -13.13134,-9.65653 -4.33864,-4.62424 -8.13063,-9.69729 -9.83603,-15.91358 -0.64529,-2.36574 -1.24285,-4.38312 -1.70677,-6.79954 -0.88162,-4.59208 -1.14117,-9.25801 -1.40049,-13.9156 -0.20778,-1.89704 -0.25103,-2.76459 -0.637,-4.58739 -0.55557,-2.62378 -1.70888,-5.05929 -2.4039,-7.64347 -0.411,-1.73838 -0.67278,-2.63628 -0.89211,-4.4238 -0.40727,-3.31906 -0.22384,-6.67248 -0.26655,-10.00515 0.003,-5.58868 0.013,-11.17737 -0.002,-16.76604 -0.004,-5.46527 0.0128,-10.9305 0.0133,-16.39576 -0.003,-5.65718 -0.0117,-11.31434 -0.0503,-16.97141 -0.002,-3.34012 -0.0192,-6.68158 0.12395,-10.01953 0.142,-3.12924 0.24869,-6.26334 1.33457,-9.24031 0.8986,-3.35938 2.0594,-6.63668 3.91175,-9.60285 0.77322,-1.33104 0.99045,-1.83917 1.99699,-3.02566 2.71178,-3.19659 6.5407,-4.99156 10.12168,-7.03147 2.50543,-1.02903 4.03736,-1.74762 6.71289,-2.45018 6.58052,-1.72797 13.37807,-1.75005 20.13117,-1.60078 12.56915,0.0757 25.13806,0.19399 37.70532,0.43295 7.70219,0.12185 15.4039,0.21032 23.10694,0.0999 0,0 -2.64148,1.91914 -2.64148,1.91914 z"
       inkscape:connector-curvature="0" />
    <path
       style="fill:#000000;fill-opacity:1"
       id="path3234"
       d="m 264.46391,323.51445 c -0.0279,2.51614 -0.009,5.03237 -0.008,7.54856 0.002,1.77987 0.007,3.55973 0.01,5.3396 -0.002,0.94663 0.001,1.89325 0.002,2.83988 0,0 -2.91199,1.48373 -2.91199,1.48373 l 0,0 c 8.3e-4,-0.94736 0.004,-1.89472 0.002,-2.84208 0.003,-1.78311 0.007,-3.56621 0.01,-5.34932 4.9e-4,-2.51334 0.0196,-5.02674 -0.008,-7.54004 0,0 2.9053,-1.48033 2.9053,-1.48033 z"
       inkscape:connector-curvature="0" />
    <path
       style="fill:#000000;fill-opacity:1"
       id="path3236"
       d="m 243.8195,341.0066 c 1.97828,0.0102 3.95661,0.005 5.93492,0.006 1.90098,-0.002 3.80197,-5.3e-4 5.70296,-0.001 1.61743,-4.3e-4 3.23487,-0.003 4.8523,-0.004 1.02568,-0.001 2.05137,-0.002 3.07705,-0.005 0,0 -2.65621,1.92984 -2.65621,1.92984 l 0,0 c -1.02105,-0.003 -2.04211,-0.004 -3.06316,-0.005 -1.61372,-0.001 -3.22743,-0.004 -4.84114,-0.004 -1.89995,-6.1e-4 -3.79989,9.7e-4 -5.69983,-0.001 -1.98396,8.5e-4 -3.96795,-0.004 -5.95189,0.006 0,0 2.645,-1.9217 2.645,-1.9217 z"
       inkscape:connector-curvature="0" />
    <text
       xml:space="preserve"
       style="font-size:17.29963684px;font-style:normal;font-weight:normal;line-height:125%;letter-spacing:0px;word-spacing:0px;fill:#000000;fill-opacity:1;stroke:none;font-family:Sans"
       x="295.83148"
       y="392.78622"
       id="text3301"
       sodipodi:linespacing="125%"><tspan
         sodipodi:role="line"
         id="tspan3303"
         x="295.83148"
         y="392.78622">Init(porta)</tspan><tspan
         sodipodi:role="line"
         x="295.83148"
         y="414.41077"
         id="tspan3305">accept</tspan><tspan
         sodipodi:role="line"
         x="295.83148"
         y="436.03534"
         id="tspan3307">process(string)</tspan><tspan
         sodipodi:role="line"
         x="295.83148"
         y="457.65985"
         id="tspan3309">draw</tspan><tspan
         sodipodi:role="line"
         x="295.83148"
         y="479.28442"
         id="tspan3311">paint</tspan></text>
    <path
       style="fill:none;stroke:#000000;stroke-width:1px;stroke-linecap:butt;stroke-linejoin:miter;stroke-opacity:1"
       d="M 390.55189,386.24322 537.9175,384.92155 521.39669,370.38324"
       id="path3313"
       inkscape:connector-curvature="0" />
    <text
       xml:space="preserve"
       style="font-size:16.18204689px;font-style:normal;font-weight:normal;line-height:125%;letter-spacing:0px;word-spacing:0px;fill:#000000;fill-opacity:1;stroke:none;font-family:Sans"
       x="543.95776"
       y="378.72046"
       id="text3315"
       sodipodi:linespacing="125%"><tspan
         sodipodi:role="line"
         id="tspan3317"
         x="543.95776"
         y="378.72046">Si attacca alla porta </tspan><tspan
         sodipodi:role="line"
         x="543.95776"
         y="398.94803"
         id="tspan3319">dal lato Server,</tspan><tspan
         sodipodi:role="line"
         x="543.95776"
         y="419.17557"
         id="tspan3321">tramite ServerSocket</tspan></text>
    <path
       style="fill:none;stroke:#000000;stroke-width:1px;stroke-linecap:butt;stroke-linejoin:miter;stroke-opacity:1"
       d="M 290.76622,412.01568 164.54724,414.659 185.03305,402.10319"
       id="path3323"
       inkscape:connector-curvature="0" />
    <text
       xml:space="preserve"
       style="font-size:16.04875565px;font-style:normal;font-weight:normal;line-height:125%;letter-spacing:0px;word-spacing:0px;fill:#000000;fill-opacity:1;stroke:none;font-family:Sans"
       x="20.334986"
       y="391.17502"
       id="text3325"
       sodipodi:linespacing="125%"><tspan
         sodipodi:role="line"
         id="tspan3327"
         x="20.334986"
         y="391.17502">Mette in relazione </tspan><tspan
         sodipodi:role="line"
         x="20.334986"
         y="411.23599"
         id="tspan3329">_outDataStream </tspan><tspan
         sodipodi:role="line"
         x="20.334986"
         y="431.29691"
         id="tspan3331">          con</tspan><tspan
         sodipodi:role="line"
         x="20.334986"
         y="451.35788"
         id="tspan3333">PrintStream_os</tspan></text>
    <path
       style="fill:none;stroke:#000000;stroke-width:1px;stroke-linecap:butt;stroke-linejoin:miter;stroke-opacity:1"
       d="m 404.42937,439.1098 98.46402,31.05912 -5.28666,-17.18164"
       id="path3335"
       inkscape:connector-curvature="0" />
    <text
       xml:space="preserve"
       style="font-size:12.28869152px;font-style:normal;font-weight:normal;line-height:125%;letter-spacing:0px;word-spacing:0px;fill:#000000;fill-opacity:1;stroke:none;font-family:Sans"
       x="510.88669"
       y="470.92227"
       id="text3337"
       sodipodi:linespacing="125%"><tspan
         sodipodi:role="line"
         id="tspan3339"
         x="510.88669"
         y="470.92227">Riceve la stringa da</tspan><tspan
         sodipodi:role="line"
         x="510.88669"
         y="486.28314"
         id="tspan3341">Observer::Notify e la gestisce</tspan><tspan
         sodipodi:role="line"
         x="510.88669"
         y="501.64401"
         id="tspan3438">passando l'informazione a draw</tspan><tspan
         sodipodi:role="line"
         x="510.88669"
         y="517.00488"
         id="tspan3440">che disegna i pianeti</tspan><tspan
         sodipodi:role="line"
         x="510.88669"
         y="532.36572"
         id="tspan3442">nella loro nuova posizione</tspan></text>
    <path
       style="fill:none;stroke:#000000;stroke-width:1px;stroke-linecap:butt;stroke-linejoin:miter;stroke-opacity:1"
       d="m 0,579.20625 745.41884,-3.96499"
       id="path3444"
       inkscape:connector-curvature="0" />
    <text
       xml:space="preserve"
       style="font-size:30.03638268px;font-style:normal;font-weight:normal;line-height:125%;letter-spacing:0px;word-spacing:0px;fill:#000000;fill-opacity:1;stroke:none;font-family:Sans"
       x="125.87518"
       y="609.96448"
       id="text3446"
       sodipodi:linespacing="125%"><tspan
         sodipodi:role="line"
         id="tspan3448"
         x="125.87518"
         y="609.96448">L'allaccio alla porta funziona cosi'</tspan></text>
    <text
       xml:space="preserve"
       style="font-size:27.19194412px;font-style:normal;font-weight:normal;line-height:125%;letter-spacing:0px;word-spacing:0px;fill:#000000;fill-opacity:1;stroke:none;font-family:Sans"
       x="115.04527"
       y="677.85156"
       id="text3450"
       sodipodi:linespacing="125%"><tspan
         sodipodi:role="line"
         id="tspan3452"
         x="115.04527"
         y="677.85156">Lato client</tspan></text>
    <text
       xml:space="preserve"
       style="font-size:27.19194412px;font-style:normal;font-weight:normal;line-height:125%;letter-spacing:0px;word-spacing:0px;fill:#000000;fill-opacity:1;stroke:none;font-family:Sans"
       x="518.53558"
       y="679.21667"
       id="text3450-3"
       sodipodi:linespacing="125%"><tspan
         sodipodi:role="line"
         id="tspan3452-1"
         x="518.53558"
         y="679.21667">Lato Server</tspan></text>
    <path
       style="fill:#000000;fill-opacity:1"
       id="path3475"
       d="m 355.00181,637.24973 c -0.0144,1.82908 -0.0108,3.65833 -0.003,5.48745 4e-5,1.01972 0.009,2.0394 0.008,3.05911 -0.009,1.17682 -0.004,2.35366 -0.004,3.53049 -3.3e-4,0.75813 -8.5e-4,0.39 0.001,1.10439 0,0 -2.91855,1.48707 -2.91855,1.48707 l 0,0 c 0.002,-0.71592 0.002,-0.34734 0.001,-1.10574 -3e-5,-1.17549 0.005,-2.351 -0.004,-3.52648 -0.001,-1.02246 0.008,-2.0449 0.008,-3.06737 0.008,-1.82818 0.0117,-3.6565 -0.003,-5.48465 0,0 2.91305,-1.48427 2.91305,-1.48427 z"
       inkscape:connector-curvature="0" />
    <path
       style="fill:#000000;fill-opacity:1"
       id="path3477"
       d="m 355.00181,671.61301 c -0.0272,2.25607 -0.014,4.51233 -0.007,6.76848 0,0 -2.89816,1.47669 -2.89816,1.47669 l 0,0 c 0.007,-2.25362 0.0198,-4.50735 -0.007,-6.7609 0,0 2.91305,-1.48427 2.91305,-1.48427 z"
       inkscape:connector-curvature="0" />
    <path
       style="fill:#000000;fill-opacity:1"
       id="path3479"
       d="m 354.34098,707.29796 c -0.0216,2.7645 -0.0255,5.52914 -0.0239,8.29372 0.007,1.71815 0.007,3.43631 0.0115,5.15446 0,0 -2.88826,1.47165 -2.88826,1.47165 l 0,0 c 0.005,-1.72208 0.005,-3.44415 0.0115,-5.16622 0.002,-2.75645 -0.002,-5.51296 -0.0239,-8.26934 0,0 2.91305,-1.48427 2.91305,-1.48427 z"
       inkscape:connector-curvature="0" />
    <path
       style="fill:#000000;fill-opacity:1"
       id="path3481"
       d="m 354.34098,747.60873 c -0.0445,3.67386 -0.0319,7.34809 -0.0379,11.02214 -0.004,3.11446 0.0133,6.22888 0.0302,9.34327 0.004,1.01865 0.002,0.537 0.007,1.44494 0,0 -2.9126,1.48404 -2.9126,1.48404 l 0,0 c 0.006,-0.91322 0.003,-0.42905 0.007,-1.45252 0.0168,-3.12466 0.0341,-6.24933 0.0302,-9.37405 -0.006,-3.66118 0.007,-7.32256 -0.0379,-10.98355 0,0 2.91305,-1.48427 2.91305,-1.48427 z"
       inkscape:connector-curvature="0" />
    <path
       style="fill:#000000;fill-opacity:1"
       id="path3485"
       d="m 358.9668,947.18008 c -0.0143,2.0154 -0.006,4.03086 -0.0137,6.04629 -0.0126,2.81799 -0.002,5.63599 -0.005,8.45399 -0.16347,2.82644 -0.39247,5.64801 -0.53311,8.47603 -0.0653,1.37033 -0.0941,2.74186 -0.10834,4.11353 0,0 -2.91199,1.47969 -2.91199,1.47969 l 0,0 c 0.0161,-1.38018 0.0497,-2.76017 0.12883,-4.13839 0.14688,-2.82435 0.37862,-5.64286 0.54903,-8.46569 -0.003,-2.81627 0.008,-5.63255 -0.005,-8.44882 -0.008,-2.01078 6.7e-4,-4.0216 -0.0137,-6.03235 0,0 2.91305,-1.48428 2.91305,-1.48428 z"
       inkscape:connector-curvature="0" />
    <path
       style="fill:#000000;fill-opacity:1"
       id="path3487"
       d="m 357.71277,1003.4965 c 0.27981,3.3713 0.39405,6.753 0.49062,10.1335 0.0586,2.4425 0.0929,4.8856 0.0991,7.3287 0.005,1.4253 0.006,2.8507 0.005,4.276 0.17577,1.0878 0.41327,2.159 0.53247,3.2565 0.0161,0.177 0.0322,0.354 0.0483,0.5311 0,0 -2.90519,1.5117 -2.90519,1.5117 l 0,0 c -0.0141,-0.1756 -0.0283,-0.3512 -0.0424,-0.5268 -0.11412,-1.1099 -0.3459,-2.1927 -0.54684,-3.2883 0.002,-1.4278 0.008,-2.8555 0.0111,-4.2833 -0.002,-2.4469 -0.002,-4.894 -0.0584,-7.3405 -0.0832,-3.3668 -0.18231,-6.737 -0.52426,-10.0895 0,0 2.89022,-1.5091 2.89022,-1.5091 z"
       inkscape:connector-curvature="0" />
    <rect
       style="fill:#ffff00;fill-opacity:1"
       id="rect3500"
       width="221.00548"
       height="87.890701"
       x="49.274944"
       y="791.33344" />
    <rect
       style="fill:#ffff00;fill-opacity:1"
       id="rect3502"
       width="32.380783"
       height="7.9299879"
       x="159.92142"
       y="842.21753" />
    <rect
       style="fill:#ffff00;fill-opacity:1"
       id="rect3500-8"
       width="221.00548"
       height="87.890701"
       x="458.47388"
       y="789.02051" />
    <rect
       style="fill:#ffff00;fill-opacity:1"
       id="rect3500-8-5"
       width="143.6881"
       height="198.24969"
       x="288.63995"
       y="757.30066" />
    <text
       xml:space="preserve"
       style="font-size:26.31757927px;font-style:normal;font-weight:normal;line-height:125%;letter-spacing:0px;word-spacing:0px;fill:#000000;fill-opacity:1;stroke:none;font-family:Sans"
       x="55.090164"
       y="838.43042"
       id="text3542"
       sodipodi:linespacing="125%"><tspan
         sodipodi:role="line"
         id="tspan3544"
         x="55.090164"
         y="838.43042">SocketObserver</tspan></text>
    <text
       xml:space="preserve"
       style="font-size:26.31757927px;font-style:normal;font-weight:normal;line-height:125%;letter-spacing:0px;word-spacing:0px;fill:#000000;fill-opacity:1;stroke:none;font-family:Sans"
       x="466.29181"
       y="832.86462"
       id="text3542-5"
       sodipodi:linespacing="125%"><tspan
         sodipodi:role="line"
         id="tspan3544-0"
         x="466.29181"
         y="832.86462">GraphicServer</tspan><tspan
         sodipodi:role="line"
         x="466.29181"
         y="865.7616"
         id="tspan3567">Init (9997)</tspan></text>
    <text
       xml:space="preserve"
       style="font-size:25.14684486px;font-style:normal;font-weight:normal;line-height:125%;letter-spacing:0px;word-spacing:0px;fill:#000000;fill-opacity:1;stroke:none;font-family:Sans"
       x="291.99188"
       y="790.88293"
       id="text3569"
       sodipodi:linespacing="125%"><tspan
         sodipodi:role="line"
         id="tspan3571"
         x="291.99188"
         y="790.88293">Porta 9997</tspan></text>
    <path
       style="fill:#ffff00;fill-opacity:1"
       id="path3573"
       d="m 251.08865,847.86498 c 2.10897,0.12435 4.19476,-0.19263 6.28548,-0.40632 1.81527,-0.1673 3.63763,-0.21421 5.45927,-0.24517 1.75736,-0.0148 3.51481,-0.01 5.27222,-0.008 1.51848,-0.003 3.03694,4e-5 4.55542,0.002 1.74432,0.004 3.48865,8.8e-4 5.23297,-6.3e-4 1.3826,-0.0742 2.79588,0.14163 4.16344,-0.10057 0.14926,-0.0412 0.29853,-0.0824 0.44779,-0.12357 0,0 -2.60622,1.9889 -2.60622,1.9889 l 0,0 c -0.15411,0.0316 -0.30822,0.0631 -0.46233,0.0947 -1.38707,0.14224 -2.789,0.014 -4.18123,0.0576 -1.74343,-0.002 -3.48687,-0.004 -5.2303,-0.001 -1.51758,0.001 -3.03514,0.002 -4.55272,-0.004 -1.7578,-0.002 -3.5157,-0.006 -5.2734,0.0162 -1.81403,0.0283 -3.62896,0.086 -5.43553,0.26285 -2.10142,0.22086 -4.20129,0.47638 -6.31985,0.38979 0,0 2.64499,-1.9217 2.64499,-1.9217 z"
       inkscape:connector-curvature="0" />
    <path
       style="fill:#000000;fill-opacity:1"
       id="path3575"
       d="m 290.8989,834.12218 c -2.60954,1.35427 -5.36027,2.3754 -8.105,3.42374 -0.49328,0.19403 -1.53789,1.10899 -1.47983,0.58211 0.0629,-0.5705 0.94857,-0.70129 1.50739,-0.83224 0.39953,-0.0936 -0.68392,0.45576 -1.00282,0.71401 -0.93268,0.75528 -1.46379,1.51494 -1.98666,2.57672 -0.67385,1.77383 -0.82303,3.65289 -0.87073,5.53011 -0.0858,1.95083 -0.009,1.93006 1.39636,3.07421 2.23071,1.95866 3.79237,4.57183 5.34389,7.07345 2.15523,2.7535 4.27785,5.62084 7.04002,7.7991 1.49144,1.07504 3.20284,1.54043 5.00738,1.67809 1.76575,0.0564 3.53303,0.0161 5.29918,-0.002 1.50966,-0.0111 3.01935,-0.0183 4.52902,-0.028 0,0 -2.64048,1.91978 -2.64048,1.91978 l 0,0 c -1.50623,4.6e-4 -3.01246,0.006 -4.51861,0.0231 -1.77574,0.018 -3.55333,0.0651 -5.32807,-0.0173 -1.84279,-0.19081 -3.57865,-0.73114 -5.08264,-1.85653 -2.75313,-2.24017 -4.89325,-5.12696 -7.06693,-7.90923 -1.55164,-2.46398 -3.09854,-5.04682 -5.34606,-6.94484 -1.41501,-1.11258 -1.66554,-1.45483 -1.539,-3.33771 0.0406,-1.91725 0.18581,-3.83007 0.82823,-5.65621 0.15296,-0.35879 0.26434,-0.73832 0.45888,-1.07637 1.43839,-2.49945 5.57096,-4.30459 7.97981,-5.29197 1.56452,-0.59683 3.15321,-1.1602 4.68855,-1.82997 3.40643,-1.486 -0.50229,0.14576 2.53913,-1.23917 0.30694,-0.13976 0.62797,-0.24624 0.94196,-0.36936 0,0 -2.59297,1.99646 -2.59297,1.99646 z"
       inkscape:connector-curvature="0" />
    <path
       style="fill:#000000;fill-opacity:1"
       id="path3577"
       d="m 284.13027,847.86498 c 2.08578,0.0105 4.17163,0.0103 6.25743,0.005 2.65374,0.006 5.30748,0.01 7.96122,0.008 1.24941,5.2e-4 2.4988,-0.002 3.7482,-0.006 0,0 -2.62546,1.90751 -2.62546,1.90751 l 0,0 c -1.24401,-0.004 -2.48802,-0.006 -3.73203,-0.006 -2.66114,-0.002 -5.32227,0.002 -7.9834,0.008 -2.0903,-0.005 -4.18067,-0.006 -6.27096,0.005 0,0 2.645,-1.9217 2.645,-1.9217 z"
       inkscape:connector-curvature="0" />
    <path
       style="fill:#000000;fill-opacity:1"
       id="path3579"
       d="m 257.7847,849.28171 c 2.64383,0.91023 5.13761,2.16621 7.7967,3.04518 1.66914,0.56352 3.40022,0.7654 5.14951,0.83524 2.02133,0.0386 4.04326,0.0186 6.06479,0.0102 1.79391,-0.009 3.58784,-0.0127 5.38176,-0.0181 1.26751,-0.10093 2.61343,0.22723 3.82572,-0.1961 -4.32162,2.42247 -2.24467,1.61288 -1.73106,0.46649 0.22099,-0.49325 0.29963,-1.05843 0.43726,-1.57798 0.26018,-0.87906 0.35712,-1.80892 0.9018,-2.56818 0,0 3.02881,-1.27246 3.02881,-1.27246 l 0,0 c -0.70174,0.60427 -0.70323,1.60147 -0.97389,2.43389 -0.90712,3.10222 -0.35686,2.44109 -4.25723,4.51062 -1.26935,0.25609 -2.58223,0.0676 -3.87122,0.12209 -1.78872,-0.002 -3.57745,0.002 -5.36616,0.008 -2.02984,0.008 -4.06042,0.0338 -6.08988,-0.0122 -1.76291,-0.0932 -3.50165,-0.33776 -5.17634,-0.92686 -2.63319,-0.90353 -5.11138,-2.1936 -7.78292,-2.97001 0,0 2.66235,-1.88966 2.66235,-1.88966 z"
       inkscape:connector-curvature="0" />
    <path
       style="fill:#000000;fill-opacity:1"
       id="path3581"
       d="m 420.99984,828.04129 c 2.74963,0.0156 5.49934,0.0138 8.249,0.0116 2.0048,-0.10148 3.97316,0.0212 5.95347,0.30775 1.41417,0.56446 1.98945,2.01484 3.03584,3.00937 0.31998,0.30411 0.6793,0.56393 1.01895,0.84589 0.36814,0.35424 0.72986,0.71527 1.10442,1.0627 0.43024,0.39908 0.89674,0.75951 1.30963,1.17652 1.85418,1.87265 3.27975,4.18055 4.84899,6.28736 1.95629,2.41621 2.94686,5.30337 3.41968,8.33281 0.2559,2.27403 0.26533,4.56656 0.26101,6.85218 -0.0183,1.78034 -0.0354,3.56069 -0.0426,5.34112 -0.0987,0.42534 -0.25308,1.3205 -0.53428,1.71242 -0.18562,0.2587 -0.43072,0.48059 -0.70108,0.64876 -2.39265,1.48825 -3.27646,2.1254 -5.63071,2.4876 -2.571,0.27572 -5.16346,0.22448 -7.74533,0.21779 -2.09301,-0.0102 -4.186,-0.0211 -6.27903,-0.0259 -1.50314,-0.004 -3.0063,-0.005 -4.50944,-0.002 -0.72651,7.3e-4 -1.45301,0.003 -2.17952,0.003 0,0 2.65047,-1.92572 2.65047,-1.92572 l 0,0 c 0.72432,-1.4e-4 1.44864,0.001 2.17296,0.002 1.50064,0.003 3.00128,0.004 4.50192,0.009 2.08575,0.0114 4.17146,0.0289 6.25721,0.0413 2.57389,0.007 5.16195,0.0544 7.72042,-0.27044 1.73909,-0.34387 3.34669,-1.3004 0.0211,0.6728 -0.26035,0.15448 0.55553,-0.27516 0.75799,-0.50022 0.26302,-0.29237 0.50565,-1.27028 0.60275,-1.59656 0.005,-1.77907 0.008,-3.55822 0.0326,-5.33715 0.0251,-2.27418 0.0354,-4.55522 -0.21314,-6.81921 -0.44664,-2.98644 -1.3907,-5.82592 -3.31411,-8.21235 -1.18659,-1.60027 -2.29912,-3.28654 -3.56077,-4.82845 -1.20352,-1.47084 -1.22053,-1.32772 -2.58847,-2.57721 -0.37248,-0.34023 -0.73379,-0.6925 -1.10068,-1.03875 -0.35377,-0.29284 -0.72716,-0.56348 -1.0613,-0.87852 -0.99717,-0.94014 -1.54693,-2.33999 -2.92112,-2.81096 -1.96043,-0.2818 -3.91521,-0.36038 -5.89739,-0.29076 -2.76028,-0.002 -5.52062,-0.004 -8.28086,0.0116 0,0 2.64147,-1.91915 2.64147,-1.91915 z"
       inkscape:connector-curvature="0" />
    <path
       style="fill:#000000;fill-opacity:1"
       id="path3583"
       d="m 428.19171,845.88248 c 3.26111,0.0157 6.52223,0.0266 9.78338,0.0234 3.14675,-0.008 6.29351,-0.0106 9.44026,-0.0104 2.1664,-0.002 4.33281,-0.005 6.4992,-0.01 1.91521,0.001 3.83042,0.002 5.74563,0.005 1.78999,-0.002 3.57999,-0.005 5.36998,-0.007 1.39835,0.0334 2.77355,0.0254 4.15332,-0.20953 1.30467,-0.13346 2.49316,-0.68138 3.70163,-1.15494 2.12755,-0.53 3.53661,-1.58972 -1.06985,1.30389 0,0 2.7105,-1.85999 2.7105,-1.85999 l 0,0 c -2.75819,2.35694 -1.73784,1.76255 -4.2115,2.5724 -1.22316,0.46309 -2.42258,0.98889 -3.7424,1.09954 -1.38926,0.20408 -2.7798,0.18606 -4.18182,0.1668 -1.78398,-0.002 -3.56796,-0.005 -5.35194,-0.007 -1.92014,0.004 -3.84029,0.004 -5.76043,0.005 -2.15723,-0.005 -4.31447,-0.008 -6.4717,-0.01 -3.13718,1.8e-4 -6.27437,-0.002 -9.41153,-0.0104 -3.2826,-0.003 -6.56517,0.008 -9.84772,0.0234 0,0 2.64499,-1.9217 2.64499,-1.9217 z"
       inkscape:connector-curvature="0" />
    <text
       xml:space="preserve"
       style="font-size:17.95008469px;font-style:normal;font-weight:normal;line-height:125%;letter-spacing:0px;word-spacing:0px;fill:#000000;fill-opacity:1;stroke:none;font-family:Sans"
       x="401.20804"
       y="643.0816"
       id="text3585"
       sodipodi:linespacing="125%"
       transform="scale(0.75780276,1.3196046)"><tspan
         sodipodi:role="line"
         id="tspan3587"
         x="401.20804"
         y="643.0816">_outDataStream</tspan><tspan
         sodipodi:role="line"
         x="401.20804"
         y="665.51929"
         id="tspan3589">PrintStream _os</tspan></text>
    <path
       style="fill:#000000;fill-opacity:1"
       id="path3591"
       d="m 353.01931,797.83198 c -0.0202,1.91552 -0.008,3.83117 -0.004,5.74674 -0.003,0.71871 8.2e-4,1.43742 0.005,2.15611 0,0 -2.91442,1.48498 -2.91442,1.48498 l 0,0 c 0.004,-0.72027 0.007,-1.44055 0.005,-2.16084 0.004,-1.91423 0.0162,-3.82853 -0.004,-5.74271 0,0 2.91305,-1.48428 2.91305,-1.48428 z"
       inkscape:connector-curvature="0" />
    <path
       style="fill:#000000;fill-opacity:1"
       id="path3593"
       d="m 356.14973,812.84225 c 1.411,1.65113 3.29179,2.69387 5.17768,3.70223 1.4246,0.64475 2.99199,0.78516 4.41464,1.42419 0.78898,0.37191 1.61499,0.64401 2.44536,0.90386 0,0 -2.69294,1.83176 -2.69294,1.83176 l 0,0 c -0.83517,-0.27361 -1.6652,-0.5604 -2.46541,-0.92722 -1.44553,-0.58492 -3.01982,-0.75557 -4.42683,-1.45267 -1.8982,-1.04629 -3.78136,-2.12956 -5.23307,-3.77822 0,0 2.78057,-1.70393 2.78057,-1.70393 z"
       inkscape:connector-curvature="0" />
    <path
       style="fill:#000000;fill-opacity:1"
       id="path3595"
       d="m 386.63656,819.45047 c 2.57148,-0.0121 5.13239,-0.0249 7.69437,0.20818 1.85603,0.18539 3.71418,0.34205 5.57809,0.41584 0.19963,0.0382 0.39926,0.0765 0.59888,0.11467 0,0 -2.67897,1.87786 -2.67897,1.87786 l 0,0 c -0.18981,-0.0284 -0.37963,-0.0568 -0.56944,-0.0853 -1.85924,-0.09 -3.71173,-0.26151 -5.56404,-0.444 -2.56325,-0.22508 -5.12873,-0.2005 -7.70036,-0.16815 0,0 2.64147,-1.91914 2.64147,-1.91914 z"
       inkscape:connector-curvature="0" />
    <path
       style="fill:#000000;fill-opacity:1"
       id="path3597"
       d="m 414.28315,823.13954 c 1.67453,0.94661 2.8708,2.39521 4.13612,3.79278 0.89825,0.9524 1.42066,2.14182 1.99535,3.29602 0.60173,1.30869 0.62075,2.83116 0.81604,4.2449 0.23811,1.81538 0.39659,3.63844 0.47511,5.46731 0.0481,1.20511 0.0479,2.41152 0.047,3.61739 0.003,1.04397 -0.005,2.08792 -0.003,3.13189 -0.0437,0.85063 0.16459,1.73825 -0.22411,2.52173 -1.10251,1.38346 -2.85304,2.33084 -4.61204,2.52797 -0.57718,0.31956 -1.16407,0.52456 -1.81762,0.60816 -0.8128,-0.0191 -1.5493,0.23901 -2.3292,0.41963 -0.62965,0.0498 -1.10959,0.359 -1.64575,0.6523 0,0 2.56159,-2.06077 2.56159,-2.06077 l 0,0 c 0.53946,-0.28255 1.07898,-0.49675 1.68911,-0.58072 0.77804,-0.19809 1.54437,-0.35935 2.3485,-0.40466 0.63596,-0.13365 1.19849,-0.4324 1.82108,-0.605 0.25846,-0.0511 0.39964,-0.0676 0.64496,-0.15882 0.10798,-0.0401 0.41468,-0.19925 0.31621,-0.13945 -4.81004,2.92119 -2.75773,1.81217 -1.98412,1.06331 0.55008,-0.65258 0.25105,-1.55754 0.31214,-2.3566 0.004,-1.0445 -3.6e-4,-2.08902 0.006,-3.13351 4.4e-4,-1.20337 0.004,-2.407 -0.0326,-3.60996 -0.0671,-1.82095 -0.20456,-3.63834 -0.44731,-5.44505 -0.19794,-1.37818 -0.23391,-2.856 -0.78924,-4.14106 -0.55417,-1.13172 -1.05898,-2.29776 -1.94181,-3.22481 -1.22803,-1.39153 -2.40917,-2.80841 -4.08388,-3.70127 0,0 2.74092,-1.78171 2.74092,-1.78171 z"
       inkscape:connector-curvature="0" />
    <path
       style="fill:#000000;fill-opacity:1"
       id="path3599"
       d="m 308.65835,853.15292 c 2.18692,0.0128 4.37388,0.006 6.56082,0.005 0.83378,-0.002 1.66756,-0.004 2.50134,-0.005 0,0 -2.63954,1.91774 -2.63954,1.91774 l 0,0 c -0.82944,-0.001 -1.65889,-0.003 -2.48833,-0.005 -2.19192,-3e-4 -4.38386,-0.007 -6.57576,0.005 0,0 2.64147,-1.91914 2.64147,-1.91914 z"
       inkscape:connector-curvature="0" />
    <path
       style="fill:#000000;fill-opacity:1"
       id="path3601"
       d="m 331.78748,853.15292 c 2.41109,0.0159 4.82223,0.0107 7.23334,0.005 1.76646,-0.003 3.53292,0 5.29938,-0.004 1.11716,0.12033 2.20611,0.40549 3.31872,0.55502 0.46677,0.0526 0.24531,0.0298 0.66426,0.0698 0,0 -2.6803,1.90411 -2.6803,1.90411 l 0,0 c -0.41919,-0.0495 -0.19732,-0.0218 -0.66547,-0.0843 -1.09315,-0.17117 -2.16923,-0.4552 -3.27646,-0.52712 -1.76262,-0.004 -3.52524,-8.8e-4 -5.28787,-0.004 -2.41568,-0.006 -4.83141,-0.0108 -7.24707,0.005 0,0 2.64147,-1.91914 2.64147,-1.91914 z"
       inkscape:connector-curvature="0" />
    <path
       style="fill:#000000;fill-opacity:1"
       id="path3603"
       d="m 360.78682,856.4558 c 2.72926,0.0189 5.45866,0.0154 8.18797,0.0113 1.68081,-0.002 3.36161,-0.005 5.04241,-0.009 0,0 -2.63877,1.91718 -2.63877,1.91718 l 0,0 c -1.67251,-0.004 -3.34501,-0.007 -5.01752,-0.009 -2.73969,-0.004 -5.47945,-0.007 -8.21909,0.0113 0,0 2.645,-1.9217 2.645,-1.9217 z"
       inkscape:connector-curvature="0" />
    <path
       style="fill:#000000;fill-opacity:1"
       id="path3605"
       d="m 389.27989,855.79625 c 2.6899,0.0183 5.37989,0.0138 8.06982,0.008 1.5217,-0.006 3.04341,-0.008 4.56513,-0.009 0.93668,-0.003 1.87336,-0.003 2.81004,-0.002 1.19846,-0.0579 2.4247,0.13126 3.60699,-0.0978 0.81198,-0.22107 1.6057,-0.43169 2.44552,-0.50348 1.35756,-0.0799 4.35533,-2.04862 -0.6908,0.82586 0.48312,-0.22608 0.62801,-0.71968 0.93786,-1.105 0.30448,-0.48654 0.59355,-0.987 0.8623,-1.49537 0.14845,-0.47784 0.36425,-0.9277 0.56513,-1.38438 0,0 2.98199,-1.37414 2.98199,-1.37414 l 0,0 c -0.18521,0.47077 -0.47769,0.89967 -0.54812,1.40815 -0.27137,0.5252 -0.57729,1.01805 -0.84191,1.53725 -0.0453,0.0704 -0.0906,0.14088 -0.13595,0.21133 -0.0514,0.0377 -0.11655,0.0617 -0.15405,0.11317 -0.21447,0.29456 -0.20399,0.74033 -0.60508,0.90184 -1.55664,0.90297 -3.1293,2.17234 -5.00482,2.31744 -0.82667,0.105 -1.61479,0.35687 -2.43255,0.5114 -1.20687,0.1303 -2.42622,0.021 -3.6382,0.0603 -0.93467,0.001 -1.86933,8.4e-4 -2.804,-0.002 -1.51317,-0.001 -3.02635,-0.003 -4.53951,-0.009 -2.69708,-0.006 -5.39422,-0.0104 -8.09126,0.008 0,0 2.64147,-1.91914 2.64147,-1.91914 z"
       inkscape:connector-curvature="0" />
    <path
       style="fill:#000000;fill-opacity:1"
       id="path3607"
       d="m 303.36181,855.82951 c -2.17197,0.25885 -4.35636,0.39124 -6.54061,0.49135 -1.55046,0.11991 -2.97726,0.64563 -4.42861,1.14726 -0.82922,0.36918 -1.69518,0.64791 -2.52634,1.01226 -0.29504,0.12933 -1.14624,0.58475 -0.87377,0.41291 0.65195,-0.41116 1.33587,-0.76984 2.01569,-1.13308 0.24421,-0.13048 -0.47203,0.28959 -0.70804,0.43438 -1.29952,0.68874 -2.23585,1.67026 -2.88791,2.97272 -0.25325,0.43319 -0.48166,0.87514 -0.6864,1.33274 0,0 -2.97686,1.37075 -2.97686,1.37075 l 0,0 c 0.18607,-0.47331 0.3907,-0.932 0.68546,-1.35078 0.62477,-1.3506 1.47924,-2.4444 2.82713,-3.149 2.46823,-1.52821 4.93983,-2.98673 7.69993,-3.90507 1.45749,-0.51857 2.92137,-0.97532 4.47994,-1.06719 2.18538,-0.10017 4.37139,-0.23332 6.54107,-0.52353 0,0 -2.62068,1.95428 -2.62068,1.95428 z"
       inkscape:connector-curvature="0" />
  </g>
</svg>
